<?xml version="1.0" encoding="UTF-8"?>
<svg version="1.1" xmlns="http://www.w3.org/2000/svg" width="1087" height="611">
<path d="M0 0 C2.46530089 2.177246 4.8388432 4.42095912 7.19921875 6.7109375 C7.87210938 7.31035156 8.545 7.90976562 9.23828125 8.52734375 C27.52808113 25.39622292 39.02550697 54.27541883 41.19921875 78.7109375 C41.19921875 81.6809375 41.19921875 84.6509375 41.19921875 87.7109375 C12.81921875 87.7109375 -15.56078125 87.7109375 -44.80078125 87.7109375 C-46.45078125 82.4309375 -48.10078125 77.1509375 -49.80078125 71.7109375 C-55.8130216 59.95366748 -63.36454691 52.34175855 -75.9453125 47.96484375 C-87.47283166 44.86374861 -100.84291403 45.78836272 -111.55859375 51.0703125 C-127.3281078 60.2025087 -134.4764095 73.62316292 -139.26660156 90.69726562 C-140.41091181 95.01091779 -141.26373505 99.28204997 -141.80078125 103.7109375 C-141.91035156 104.53980469 -142.01992188 105.36867188 -142.1328125 106.22265625 C-145.12039219 132.87186705 -142.22187174 163.49931923 -125.11328125 185.08203125 C-118.13816446 193.01151368 -108.31098612 198.18931082 -97.80078125 199.7109375 C-84.30486833 200.46473715 -72.88374101 199.25638459 -61.80078125 190.7109375 C-51.94588173 180.70265433 -47.49931973 167.2036299 -44.80078125 153.7109375 C-15.76078125 153.7109375 13.27921875 153.7109375 43.19921875 153.7109375 C42.02893517 172.43547483 42.02893517 172.43547483 40.51171875 178.7734375 C40.33874268 179.51746826 40.1657666 180.26149902 39.98754883 181.02807617 C32.7075686 210.73330622 13.26250073 237.14237098 -12.72265625 253.1875 C-48.47425606 274.39999942 -91.77922213 277.91273152 -131.73266602 267.86254883 C-153.50373397 261.95253734 -172.54042112 251.29916827 -188.80078125 235.7109375 C-189.68378906 234.90269531 -190.56679688 234.09445312 -191.4765625 233.26171875 C-210.11917349 215.62111514 -221.5472987 191.82022228 -227.55078125 167.1484375 C-227.74953857 166.33487793 -227.9482959 165.52131836 -228.15307617 164.68310547 C-231.34384182 150.81223309 -232.17904756 137.18939514 -232.11328125 123.0234375 C-232.1111261 122.18644318 -232.10897095 121.34944885 -232.10675049 120.48709106 C-232.05530873 108.02911686 -231.73083799 95.8777239 -228.80078125 83.7109375 C-228.59678711 82.85838379 -228.39279297 82.00583008 -228.18261719 81.12744141 C-222.60807909 58.61425952 -213.32401589 37.1643817 -197.80078125 19.7109375 C-197.11628906 18.88335937 -196.43179688 18.05578125 -195.7265625 17.203125 C-172.8526122 -9.77206962 -137.16311517 -23.13814745 -102.71923828 -26.0949707 C-66.94966407 -28.47382393 -28.5661879 -23.34698202 0 0 Z " fill="#FFFFFF" transform="translate(943.80078125,265.2890625)"/>
<path d="M0 0 C29.37 0 58.74 0 89 0 C89 32.67 89 65.34 89 99 C115.73 99 142.46 99 170 99 C170 66.33 170 33.66 170 0 C199.37 0 228.74 0 259 0 C259.72545462 40.39259652 259.72545462 40.39259652 259.87890625 57.35546875 C259.98560755 69.05629928 260.11083787 80.75479222 260.35791016 92.45361328 C260.53779645 100.97528247 260.65355313 109.49505131 260.69359291 118.01856637 C260.71699035 122.52954022 260.77159587 127.03508012 260.90314102 131.54430389 C261.67266434 158.95864693 261.67266434 158.95864693 257.2355442 165.66804504 C253.11008546 169.76157813 248.51454553 172.19031384 243.10177708 174.19513988 C240.34522044 175.25074303 237.98112837 176.74854475 235.52734375 178.375 C234.00284423 179.2594585 232.47291869 180.13463586 230.9375 181 C230.07938721 181.48509033 229.22127441 181.97018066 228.3371582 182.4699707 C182.47013499 208 182.47013499 208 170 208 C170 196.45 170 184.9 170 173 C143.27 173 116.54 173 89 173 C89 190.82 89 208.64 89 227 C75.1470597 228.80690526 61.82217995 230.49109009 47.9440918 231.08081055 C45.40421418 231.18891676 42.86529931 231.31114879 40.32617188 231.43554688 C26.75438963 232.07952756 13.57515928 232.13126327 0 231 C0 154.77 0 78.54 0 0 Z " fill="#FFFFFF" transform="translate(115,246)"/>
<path d="M0 0 C0.66 0 1.32 0 2 0 C2.20044922 0.53778076 2.40089844 1.07556152 2.60742188 1.62963867 C6.81534221 12.80901433 11.22378521 23.12402738 18 33 C17.44695354 30.66325413 16.82413616 28.55516793 15.9375 26.3125 C14.57556111 21.50031592 13.92975584 16.39570038 16.015625 11.7265625 C16.34046875 11.15679687 16.6653125 10.58703125 17 10 C19.4226362 12.18497116 20.70274865 14.14944013 21.98046875 17.140625 C22.33568604 17.95684326 22.69090332 18.77306152 23.05688477 19.61401367 C23.42998779 20.48388916 23.80309082 21.35376465 24.1875 22.25 C32.37253768 41.03200176 32.37253768 41.03200176 45 57 C45.66 56.01 46.32 55.02 47 54 C47.66 53.01 48.32 52.02 49 51 C50.72265625 51.1328125 50.72265625 51.1328125 53 52 C54.65566552 53.93703981 56.04211898 55.7645834 57.4375 57.875 C57.83146973 58.45709229 58.22543945 59.03918457 58.63134766 59.63891602 C61.54526235 64.0518099 63.89075441 68.57895594 65.9296875 73.46484375 C66.28289062 74.30144531 66.63609375 75.13804688 67 76 C67.39316406 76.99902344 67.78632812 77.99804688 68.19140625 79.02734375 C70.48147273 82.79136231 73.33185149 84.50258355 77.0625 86.625 C78.50948918 87.48677427 79.95473687 88.3514778 81.3984375 89.21875 C82.1522168 89.66863281 82.90599609 90.11851563 83.68261719 90.58203125 C87.59724539 92.97732841 91.38470539 95.55737383 95.1875 98.125 C96.70661335 99.1334423 98.22613696 100.14126691 99.74609375 101.1484375 C102.3796458 102.89866086 104.97172576 104.68798192 107.53515625 106.5390625 C114.13295159 111.07654994 119.59397115 113.46158901 127.72265625 112.9765625 C132.88562709 111.43813257 135.24576521 108.18548305 138.4921875 104.0390625 C143.81988412 97.58275725 150.8337812 92.14724827 159 90 C161.33333333 90 163.66666667 90 166 90 C167.34882408 89.36525925 168.6846659 88.70151152 170 88 C172.75 87.875 172.75 87.875 175 88 C175 89.98 175 91.96 175 94 C174.34 94 173.68 94 173 94 C169.0746904 103.9235355 165.21407078 113.81878201 162 124 C162.92554688 123.9690625 163.85109375 123.938125 164.8046875 123.90625 C168 124 168 124 171.125 125.5 C180.3499599 129.72159182 193.17226996 126.49259029 202.97732544 125.4041748 C207.28394078 124.92757805 211.59293822 124.47401655 215.90234375 124.0234375 C216.76025009 123.93372681 217.61815643 123.84401611 218.50205994 123.75158691 C226.346809 122.94295097 234.19536757 122.29997868 242.0625 121.75 C243.76212891 121.63035889 243.76212891 121.63035889 245.49609375 121.50830078 C250.33825263 121.18474294 255.14388198 120.89900621 260 121 C259.50384615 125.58942308 259.50384615 125.58942308 256.953125 127.66796875 C255.98632812 128.32732422 255.98632812 128.32732422 255 129 C266.08102682 128.81563409 276.98078835 128.33980143 287.875 126.1875 C289.07527832 125.95788574 289.07527832 125.95788574 290.29980469 125.72363281 C295.67468967 124.5797993 300.19911089 122.647199 305 120 C305.66 119.67 306.32 119.34 307 119 C307 121.6875 307 121.6875 306 125 C303.51980792 127.02924807 300.84381248 128.5359872 298 130 C300.71037002 129.7434505 303.41734615 129.47028951 306.125 129.1875 C306.88554688 129.11724609 307.64609375 129.04699219 308.4296875 128.97460938 C313.23527064 128.45676636 316.71274759 127.37818713 321 125 C321.66 125 322.32 125 323 125 C321.46637662 128.9037686 319.52510068 130.74393557 316 133 C312.03799658 134.50835072 308.05678952 135.75175707 304 137 C316.375 138.485 316.375 138.485 329 140 C329 140.99 329 141.98 329 143 C323.72 143.99 318.44 144.98 313 146 C316.51653457 147.17217819 319.8100029 148.26448346 323.375 149.125 C324.57125 149.41375 325.7675 149.7025 327 150 C327 150.66 327 151.32 327 152 C319.36399015 153.77541538 311.8187104 154.53430878 304 155 C304.57032959 155.19634033 305.14065918 155.39268066 305.72827148 155.5949707 C308.30239719 156.48873152 310.86984317 157.40033027 313.4375 158.3125 C314.33533203 158.62123047 315.23316406 158.92996094 316.15820312 159.24804688 C317.01220703 159.55419922 317.86621094 159.86035156 318.74609375 160.17578125 C319.53685303 160.45333252 320.3276123 160.73088379 321.14233398 161.0168457 C323 162 323 162 324 165 C312.2422322 165.36743024 301.47522388 164.62648176 290 162 C295.92345204 165.8132892 301.84065508 169.57814171 308 173 C308 173.33 308 173.66 308 174 C305.95920995 174.1968121 303.91729993 174.38202831 301.875 174.5625 C300.73804688 174.66691406 299.60109375 174.77132812 298.4296875 174.87890625 C295.11102007 174.99608016 292.2437314 174.6655072 289 174 C289.66 175.65 290.32 177.3 291 179 C289.89205078 179.03867187 289.89205078 179.03867187 288.76171875 179.078125 C280.51144197 179.53938571 273.22376803 181.17818886 265.91015625 185.12890625 C263.01720793 186.44818534 260.14518848 186 257 186 C255.515 186.99 255.515 186.99 254 188 C251.9765625 188.08984375 251.9765625 188.08984375 249.625 187.9375 C241.54316809 187.77110934 233.48351239 189.06338372 227 194 C224.984375 194.4765625 224.984375 194.4765625 222.75 194.625 C221.88246094 194.68945312 221.01492188 194.75390625 220.12109375 194.8203125 C219.09113281 194.87960938 218.06117188 194.93890625 217 195 C214.97490516 195.12370037 212.94981362 195.24745971 210.92480469 195.37255859 C208.89429664 195.49506497 206.86316667 195.60712725 204.83203125 195.71875 C200.9932893 195.94808886 200.9932893 195.94808886 197.19921875 196.59375 C194 197 194 197 191 196 C187.35200598 195.97469182 183.71840297 196.02759513 180.07226562 196.12695312 C178.04795251 196.15664538 176.02274323 196.08505895 174 196 C173.34 195.34 172.68 194.68 172 194 C171.34 194.33 170.68 194.66 170 195 C167.66666667 195 165.33333333 195 163 195 C161.7315625 195.3403125 161.7315625 195.3403125 160.4375 195.6875 C156.95918512 196.1334378 154.96130476 194.72168881 152 193 C152 192.34 152 191.68 152 191 C150.88625 190.79375 149.7725 190.5875 148.625 190.375 C145 189 145 189 143.5625 185.875 C143.376875 184.92625 143.19125 183.9775 143 183 C142.01 183 141.02 183 140 183 C141.859244 189.56078054 145.26156994 195.257479 148.54296875 201.1875 C148.98511719 202.00476563 149.42726563 202.82203125 149.8828125 203.6640625 C150.28902832 204.40092285 150.69524414 205.1377832 151.11376953 205.89697266 C152 208 152 208 152 212 C148.86501708 213.85776765 146.62528568 214.20140476 143 214 C142.87625 215.093125 142.7525 216.18625 142.625 217.3125 C142 221 142 221 140 224 C137.375 224.1875 137.375 224.1875 135 224 C134.8453125 225.175625 134.8453125 225.175625 134.6875 226.375 C134 229 134 229 131 231 C130.21625 230.9175 129.4325 230.835 128.625 230.75 C125.63342567 230.72408927 125.63342567 230.72408927 123.5 234 C121 237 121 237 118.375 237.375 C117.199375 237.189375 117.199375 237.189375 116 237 C112.99259901 236.90596386 112.99259901 236.90596386 110.0625 237.5625 C107.09307579 237.98670346 105.79360386 237.78570109 103 237 C102.05125 237.04125 101.1025 237.0825 100.125 237.125 C96.36038006 236.9744152 94.1929934 235.95933686 91 234 C90.34 233.01 89.68 232.02 89 231 C87.845 230.690625 86.69 230.38125 85.5 230.0625 C82 229 82 229 80.5625 227.0625 C80 225 80 225 80 222 C79.071875 222.061875 78.14375 222.12375 77.1875 222.1875 C74 222 74 222 72.25 220.875 C71 219 71 219 70.125 216 C68.74342769 212.31580716 67.32722191 211.87689441 64 210 C62.8068411 207.44323092 62.93859359 206.24562562 63.625 203.5 C63.74875 202.675 63.8725 201.85 64 201 C63.505 200.360625 63.01 199.72125 62.5 199.0625 C61 197 61 197 61.1875 193.875 C62 191 62 191 64 189 C62.02 187.68 60.04 186.36 58 185 C58.33 183.35 58.66 181.7 59 180 C62.93504649 178.65934762 66.87341646 177.32873929 70.8125 176 C71.93205078 175.6184375 73.05160156 175.236875 74.20507812 174.84375 C75.27822266 174.4828125 76.35136719 174.121875 77.45703125 173.75 C78.44678955 173.41484375 79.43654785 173.0796875 80.45629883 172.734375 C83 172 83 172 86 172 C86 171.34 86 170.68 86 170 C85.01 169.67 84.02 169.34 83 169 C82.67 168.34 82.34 167.68 82 167 C80.68 167 79.36 167 78 167 C77.55011719 167.66515625 77.10023438 168.3303125 76.63671875 169.015625 C75.82654297 169.99789062 75.82654297 169.99789062 75 171 C72.08203125 171.171875 72.08203125 171.171875 68.8125 170.75 C67.72582031 170.62109375 66.63914062 170.4921875 65.51953125 170.359375 C64.68808594 170.24078125 63.85664062 170.1221875 63 170 C62.67 169.01 62.34 168.02 62 167 C60.515 166.01 60.515 166.01 59 165 C59 164.34 59 163.68 59 163 C57.35 162.67 55.7 162.34 54 162 C54 161.34 54 160.68 54 160 C53.113125 159.71125 52.22625 159.4225 51.3125 159.125 C43.18181818 156.36363636 43.18181818 156.36363636 42 154 C41.175 153.835 40.35 153.67 39.5 153.5 C38.675 153.335 37.85 153.17 37 153 C36.67 152.34 36.34 151.68 36 151 C33.47634255 149.3876633 30.92888578 147.96444289 28.25 146.625 C26 145 26 145 25.1875 142.3125 C25.125625 141.549375 25.06375 140.78625 25 140 C24.071875 139.814375 24.071875 139.814375 23.125 139.625 C21 139 21 139 19 137 C18.875 134.375 18.875 134.375 19 132 C17.9275 132.12375 16.855 132.2475 15.75 132.375 C13.89375 132.189375 13.89375 132.189375 12 132 C9.75 129.25 9.75 129.25 8 126 C7.505 125.38125 7.01 124.7625 6.5 124.125 C3.68873724 120.14237776 1 115.94053662 1 111 C0.071875 110.896875 -0.85625 110.79375 -1.8125 110.6875 C-5.0677766 109.98538152 -6.08373387 109.62225892 -8 107 C-8.33 106.01 -8.66 105.02 -9 104 C-9.78375 103.4225 -10.5675 102.845 -11.375 102.25 C-14.61119225 99.47612093 -15.44028971 96.93318248 -17 93 C-17.70125 91.96875 -18.4025 90.9375 -19.125 89.875 C-21 87 -21 87 -21.375 84.5 C-22.21950616 81.12197536 -24.11886699 79.73903298 -26.72265625 77.52734375 C-28 76 -28 76 -28 72 C-25.525 71.505 -25.525 71.505 -23 71 C-23.83144531 70.39671875 -24.66289062 69.7934375 -25.51953125 69.171875 C-26.6174106 68.36488676 -27.71505449 67.55757813 -28.8125 66.75 C-29.35970703 66.35425781 -29.90691406 65.95851563 -30.47070312 65.55078125 C-33.49117854 63.31746003 -36.08073603 61.25938162 -38 58 C-38 57.01 -38 56.02 -38 55 C-29.23339098 56.60159203 -20.62927587 58.79450269 -12 61 C-12.82242187 60.52691406 -13.64484375 60.05382812 -14.4921875 59.56640625 C-24.66379376 53.54096282 -34.57163423 47.47349314 -39 36 C-39 35.34 -39 34.68 -39 34 C-32.88306567 35.62640896 -27.77717151 38.87268188 -22.375 42.0625 C-20.51046606 43.16206419 -18.64337295 44.25730326 -16.7734375 45.34765625 C-15.95278809 45.83242432 -15.13213867 46.31719238 -14.28662109 46.81665039 C-12.16638859 47.91389222 -10.33189358 48.54198532 -8 49 C-8.70125 48.46632812 -9.4025 47.93265625 -10.125 47.3828125 C-17.53617843 41.56262074 -25.33940442 34.96214779 -29 26 C-29.0777346 23.66796188 -29.08967728 21.33160941 -29 19 C-25.61229787 20.4792455 -23.30508899 22.40833753 -20.625 24.9375 C-14.38202426 30.67580405 -7.71203469 35.82573694 -1 41 C-2.97735495 38.51506509 -4.9641935 36.04286989 -7 33.60546875 C-13.11295663 26.2149997 -18.56748491 19.0633991 -18 9 C-17.0078125 6.734375 -17.0078125 6.734375 -16 5 C-12.35715495 8.31773989 -9.92921681 12.00555783 -7.3125 16.125 C-3.06625161 22.67322924 1.5428537 28.39785705 7 34 C5.84153236 31.60700371 4.60208232 29.30949579 3.2734375 27.00390625 C-1.15877367 18.96938353 -3.57161747 12.4157967 -2 3 C-1.34 2.01 -0.68 1.02 0 0 Z M20 35 C21 37 21 37 21 37 Z " fill="#FFFFFF" transform="translate(472,6)"/>
<path d="M0 0 C-0.01571045 0.93046143 -0.0314209 1.86092285 -0.04760742 2.81958008 C-0.80432943 48.12383831 -0.80432943 48.12383831 20.7109375 86.83984375 C30.84570294 96.40388008 43.50760455 98.43475828 56.984375 98.2109375 C68.05141117 97.79243613 76.58834943 92.7962041 84.1875 84.9375 C92.2657328 75.31749712 94.7829495 64.06393936 98 52 C126.71 52 155.42 52 185 52 C185 83.99433546 173.74126014 110.16410346 152.15625 133.84765625 C148.06395164 137.93254102 143.5879959 141.49115243 139 145 C138.20851563 145.60714844 137.41703125 146.21429687 136.6015625 146.83984375 C105.26578179 169.79512496 64.61630704 175.05249312 26.89135742 169.48046875 C-7.8133895 163.68940438 -37.58038647 147.34055643 -59.734375 119.84765625 C-61 118 -61 118 -61 116 C-61.66 116 -62.32 116 -63 116 C-74.47934712 96.04395189 -84.34227217 76.16586649 -87 53 C-85.55947266 52.35998047 -85.55947266 52.35998047 -84.08984375 51.70703125 C-55.31256097 38.67162648 -26.84909351 21.57244605 -2.58203125 1.2578125 C-1 0 -1 0 0 0 Z " fill="#FFFFFF" transform="translate(499,367)"/>
<path d="M0 0 C26.35189826 7.90556948 47.07474214 27.07198062 60 51 C68.19711009 67.44784614 74 86.58848074 74 105 C45.62 105 17.24 105 -12 105 C-14.97 96.09 -14.97 96.09 -18 87 C-24.78187853 75.57127877 -32.34986008 69.22252946 -45 65 C-46.65962404 64.63320724 -48.324881 64.28786323 -50 64 C-48.40198456 60.1373684 -45.77809555 57.41835993 -42.9375 54.4375 C-37.69470413 48.82297183 -32.79977995 42.99972494 -28 37 C-27.08923981 35.88094186 -26.17774524 34.76248112 -25.265625 33.64453125 C-16.43718859 22.77569253 -7.77056671 11.65585007 0 0 Z " fill="#FFFFFF" transform="translate(609,248)"/>
<path d="M0 0 C0 31.35 0 62.7 0 95 C-29.37 95 -58.74 95 -89 95 C-89 72.56 -89 50.12 -89 27 C-81.08 24.69 -73.16 22.38 -65 20 C-58.29375776 17.9544492 -51.59068829 15.90596238 -44.8972168 13.82006836 C-42.03880991 12.93012426 -39.17864494 12.04599427 -36.31835938 11.16210938 C-26.86651325 8.2282121 -17.46802768 5.21659482 -8.18482971 1.78025818 C-5.30352657 0.7280466 -3.09601839 0 0 0 Z " fill="#FFFFFF" transform="translate(374,436)"/>
<path d="M0 0 C-10.26688305 27.44612301 -33.66042945 51.91990394 -53.33203125 73.0859375 C-55.36408772 75.3054311 -57.35231477 77.54450273 -59.32421875 79.81640625 C-63.11361282 84.16359337 -67.03989481 88.37100935 -71 92.5625 C-71.67289062 93.27857422 -72.34578125 93.99464844 -73.0390625 94.73242188 C-75.01691575 96.83054998 -77.00514166 98.91804081 -79 101 C-79.98419922 102.03229736 -79.98419922 102.03229736 -80.98828125 103.08544922 C-81.61089844 103.72627441 -82.23351562 104.36709961 -82.875 105.02734375 C-83.42929687 105.600896 -83.98359375 106.17444824 -84.5546875 106.76538086 C-86 108 -86 108 -88 108 C-88.22292725 108.54817383 -88.44585449 109.09634766 -88.67553711 109.66113281 C-90.40205728 112.70999239 -92.71687539 114.98365833 -95.19140625 117.421875 C-95.69671371 117.92672424 -96.20202118 118.43157349 -96.72264099 118.95172119 C-97.78692989 120.01299872 -98.85363849 121.07185455 -99.92260742 122.12841797 C-101.5655675 123.75303325 -103.20029617 125.38559778 -104.83398438 127.01953125 C-105.86931932 128.04995399 -106.9051107 129.07991835 -107.94140625 130.109375 C-108.43306778 130.59992371 -108.92472931 131.09047241 -109.43128967 131.59588623 C-112.8839275 135 -112.8839275 135 -114 135 C-115.65612797 101.32539786 -100.65120468 65.61329485 -78.51171875 40.7578125 C-77.68285156 39.84773438 -76.85398437 38.93765625 -76 38 C-75.40832031 37.33742188 -74.81664062 36.67484375 -74.20703125 35.9921875 C-65.10325668 26.32645154 -53.70743879 19.07122945 -42 13 C-41.10692139 12.53400391 -41.10692139 12.53400391 -40.19580078 12.05859375 C-28.22472881 5.90737375 -13.65364708 -0.3901042 0 0 Z " fill="#FFFFFF" transform="translate(524,242)"/>
<path d="M0 0 C0 16.83 0 33.66 0 51 C-29.37 51 -58.74 51 -89 51 C-89 37.47 -89 23.94 -89 10 C-82.503125 9.443125 -76.00625 8.88625 -69.3125 8.3125 C-47.69857379 6.3986867 -26.08018799 4.07982617 -4.67919922 0.43432617 C-2 0 -2 0 0 0 Z " fill="#FFFFFF" transform="translate(204,480)"/>
<path d="M0 0 C2.93200693 2.08326808 3.82319306 3.45779204 4.9375 6.875 C5.0154753 10.7737648 4.13513938 12.76047819 2 16 C-0.66252997 18.18707819 -2.00781941 17.9995811 -5.5 17.8125 C-10.92572215 16.55295736 -10.92572215 16.55295736 -13 14 C-13.90494038 10.95610963 -14.24459289 8.16858969 -14 5 C-10.39615757 -1.1780156 -6.6983002 -1.5276825 0 0 Z M-10 3 C-11.69055226 5.33457217 -12.00969831 6.61206752 -11.9375 9.5 C-10.64361743 12.95035351 -9.20807399 14.21773667 -6 16 C-2.42804714 15.29961709 -0.57715558 14.57715558 2 12 C2.58369443 8.58461856 2.58369443 8.58461856 2 5 C-0.18498756 2.46808501 -0.18498756 2.46808501 -3 1 C-6.17370278 1 -7.3794668 1.30933342 -10 3 Z " fill="#FFFFFF" transform="translate(978,240)"/>
<path d="M0 0 C1.99954746 -0.04254356 4.00041636 -0.04080783 6 0 C7 1 7 1 7.09765625 3.28515625 C7.08605469 4.20167969 7.07445312 5.11820313 7.0625 6.0625 C7.05347656 6.98160156 7.04445313 7.90070313 7.03515625 8.84765625 C7.02355469 9.55792969 7.01195312 10.26820313 7 11 C6.34 11 5.68 11 5 11 C4.67 9.35 4.34 7.7 4 6 C3.34 6 2.68 6 2 6 C2 7.65 2 9.3 2 11 C1.34 11 0.68 11 0 11 C0 7.37 0 3.74 0 0 Z M2 2 C2 2.66 2 3.32 2 4 C2.99 3.67 3.98 3.34 5 3 C4.01 2.67 3.02 2.34 2 2 Z " fill="#FFFFFF" transform="translate(970,243)"/>
</svg>
